# xmcd
#
# Track frame offsets:
#       182
#       10392
#       23452
#       39677
#       53667
#       68002
#       79482
#       99805
#       113002
#       128727
#       154772
#       168037
#       180602
#
# Disc length: 2651 seconds
#
# Revision: 1
# Processed by: cddbd v1.4PL0 Copyright (c) Steve Scherf et al.
# Submitted via: MusiCat 1.1
#
DISCID=920a590d
DTITLE=Jimmy D. Lane - Jimmy D. Lane
DYEAR=1900
DGENRE=
TTITLE0=Swingin' time
TTITLE1=Hangin' on
TTITLE2=Head for the Bar
TTITLE3=After Nine
TTITLE4=Shake Shiver Ache
TTITLE5=Stuck in the Middle
TTITLE6=Out on the Road
TTITLE7=Hand on the Door
TTITLE8=Half Love
TTITLE9=Whiskey
TTITLE10=Long GOne
TTITLE11=Cowboy's retreat
TTITLE12=Obsession Baby
EXTD=0\n\n\nsubmitted by Stamppot
EXTT0=
EXTT1=
EXTT2=
EXTT3=
EXTT4=
EXTT5=
EXTT6=
EXTT7=
EXTT8=
EXTT9=
EXTT10=
EXTT11=
EXTT12=
PLAYORDER=
